<mxfile host="app.diagrams.net" agent="Mozilla/5.0 (Windows NT 10.0; Win64; x64) AppleWebKit/537.36 (KHTML, like Gecko) Chrome/129.0.0.0 Safari/537.36" version="24.7.17">
  <diagram name="Page-1" id="gvi4fr8DggZ4WVWBm7RB">
    <mxGraphModel dx="1434" dy="746" grid="1" gridSize="10" guides="1" tooltips="1" connect="1" arrows="1" fold="1" page="1" pageScale="1" pageWidth="850" pageHeight="1100" math="0" shadow="0">
      <root>
        <mxCell id="0" />
        <mxCell id="1" parent="0" />
        <mxCell id="wA8iVL1tp9t-1YJ-hq6O-1" value="Start" style="ellipse;aspect=fixed;strokeWidth=2;whiteSpace=wrap;" vertex="1" parent="1">
          <mxGeometry x="270" y="20" width="51" height="51" as="geometry" />
        </mxCell>
        <mxCell id="wA8iVL1tp9t-1YJ-hq6O-2" value="User accesses password recovery page" style="whiteSpace=wrap;strokeWidth=2;" vertex="1" parent="1">
          <mxGeometry x="181" y="121" width="229" height="67" as="geometry" />
        </mxCell>
        <mxCell id="wA8iVL1tp9t-1YJ-hq6O-3" value="User enters registered email" style="whiteSpace=wrap;strokeWidth=2;" vertex="1" parent="1">
          <mxGeometry x="62" y="237" width="220" height="67" as="geometry" />
        </mxCell>
        <mxCell id="wA8iVL1tp9t-1YJ-hq6O-4" value="Is email valid?" style="rhombus;strokeWidth=2;whiteSpace=wrap;" vertex="1" parent="1">
          <mxGeometry x="97" y="354" width="150" height="150" as="geometry" />
        </mxCell>
        <mxCell id="wA8iVL1tp9t-1YJ-hq6O-5" value="Send password recovery email" style="whiteSpace=wrap;strokeWidth=2;" vertex="1" parent="1">
          <mxGeometry x="33" y="577" width="233" height="67" as="geometry" />
        </mxCell>
        <mxCell id="wA8iVL1tp9t-1YJ-hq6O-6" value="Show confirmation message" style="whiteSpace=wrap;strokeWidth=2;" vertex="1" parent="1">
          <mxGeometry x="20" y="693" width="259" height="49" as="geometry" />
        </mxCell>
        <mxCell id="wA8iVL1tp9t-1YJ-hq6O-7" value="End" style="ellipse;aspect=fixed;strokeWidth=2;whiteSpace=wrap;" vertex="1" parent="1">
          <mxGeometry x="129" y="792" width="41" height="41" as="geometry" />
        </mxCell>
        <mxCell id="wA8iVL1tp9t-1YJ-hq6O-8" value="Display invalid email error" style="whiteSpace=wrap;strokeWidth=2;" vertex="1" parent="1">
          <mxGeometry x="316" y="585" width="249" height="49" as="geometry" />
        </mxCell>
        <mxCell id="wA8iVL1tp9t-1YJ-hq6O-9" value="" style="curved=1;startArrow=none;endArrow=block;exitX=0.49;exitY=0.99;entryX=0.5;entryY=-0.01;rounded=0;" edge="1" parent="1" source="wA8iVL1tp9t-1YJ-hq6O-1" target="wA8iVL1tp9t-1YJ-hq6O-2">
          <mxGeometry relative="1" as="geometry">
            <Array as="points" />
          </mxGeometry>
        </mxCell>
        <mxCell id="wA8iVL1tp9t-1YJ-hq6O-10" value="" style="curved=1;startArrow=none;endArrow=block;exitX=0.19;exitY=0.99;entryX=0.5;entryY=0;rounded=0;" edge="1" parent="1" source="wA8iVL1tp9t-1YJ-hq6O-2" target="wA8iVL1tp9t-1YJ-hq6O-3">
          <mxGeometry relative="1" as="geometry">
            <Array as="points">
              <mxPoint x="172" y="212" />
            </Array>
          </mxGeometry>
        </mxCell>
        <mxCell id="wA8iVL1tp9t-1YJ-hq6O-11" value="" style="curved=1;startArrow=none;endArrow=block;exitX=0.5;exitY=1;entryX=0.5;entryY=0;rounded=0;" edge="1" parent="1" source="wA8iVL1tp9t-1YJ-hq6O-3" target="wA8iVL1tp9t-1YJ-hq6O-4">
          <mxGeometry relative="1" as="geometry">
            <Array as="points" />
          </mxGeometry>
        </mxCell>
        <mxCell id="wA8iVL1tp9t-1YJ-hq6O-12" value="Yes" style="curved=1;startArrow=none;endArrow=block;exitX=0.4;exitY=1;entryX=0.5;entryY=-0.01;rounded=0;" edge="1" parent="1" source="wA8iVL1tp9t-1YJ-hq6O-4" target="wA8iVL1tp9t-1YJ-hq6O-5">
          <mxGeometry relative="1" as="geometry">
            <Array as="points">
              <mxPoint x="149" y="540" />
            </Array>
          </mxGeometry>
        </mxCell>
        <mxCell id="wA8iVL1tp9t-1YJ-hq6O-13" value="" style="curved=1;startArrow=none;endArrow=block;exitX=0.5;exitY=0.99;entryX=0.5;entryY=0;rounded=0;" edge="1" parent="1" source="wA8iVL1tp9t-1YJ-hq6O-5" target="wA8iVL1tp9t-1YJ-hq6O-6">
          <mxGeometry relative="1" as="geometry">
            <Array as="points" />
          </mxGeometry>
        </mxCell>
        <mxCell id="wA8iVL1tp9t-1YJ-hq6O-14" value="" style="curved=1;startArrow=none;endArrow=block;exitX=0.5;exitY=1;entryX=0.5;entryY=0;rounded=0;" edge="1" parent="1" source="wA8iVL1tp9t-1YJ-hq6O-6" target="wA8iVL1tp9t-1YJ-hq6O-7">
          <mxGeometry relative="1" as="geometry">
            <Array as="points" />
          </mxGeometry>
        </mxCell>
        <mxCell id="wA8iVL1tp9t-1YJ-hq6O-15" value="No" style="curved=1;startArrow=none;endArrow=block;exitX=1;exitY=0.88;entryX=0.33;entryY=0.01;rounded=0;" edge="1" parent="1" source="wA8iVL1tp9t-1YJ-hq6O-4" target="wA8iVL1tp9t-1YJ-hq6O-8">
          <mxGeometry relative="1" as="geometry">
            <Array as="points">
              <mxPoint x="318" y="540" />
            </Array>
          </mxGeometry>
        </mxCell>
        <mxCell id="wA8iVL1tp9t-1YJ-hq6O-16" value="" style="curved=1;startArrow=none;endArrow=block;exitX=0.52;exitY=0.01;entryX=0.9;entryY=0.99;rounded=0;" edge="1" parent="1" source="wA8iVL1tp9t-1YJ-hq6O-8" target="wA8iVL1tp9t-1YJ-hq6O-2">
          <mxGeometry relative="1" as="geometry">
            <Array as="points">
              <mxPoint x="456" y="540" />
              <mxPoint x="456" y="212" />
            </Array>
          </mxGeometry>
        </mxCell>
      </root>
    </mxGraphModel>
  </diagram>
</mxfile>
